<svg width="47" height="47" viewBox="0 0 47 47" fill="none" xmlns="http://www.w3.org/2000/svg">
<g clip-path="url(#clip0)">
<path d="M42.7243 22.1922V38.8683C42.7243 42.1034 40.0922 44.7355 36.857 44.7355H10.2101C6.97499 44.7355 4.34277 42.1034 4.34277 38.8683V22.1922C4.34277 21.83 4.48835 21.484 4.74626 21.2306L20.4917 5.75509C21.3301 4.93103 22.4318 4.51855 23.5336 4.51855C24.6353 4.51855 25.737 4.93103 26.5755 5.75509L42.3208 21.2306C42.5788 21.484 42.7243 21.83 42.7243 22.1922Z" fill="#EBE9E9"/>
<path d="M42.724 22.1922V38.8683C42.724 42.1034 40.0919 44.7355 36.8567 44.7355H23.5332V4.51855C24.6349 4.51855 25.7367 4.93103 26.5751 5.75509L42.3204 21.2306C42.5784 21.484 42.724 21.83 42.724 22.1922Z" fill="#DBDBE3"/>
<path d="M46.1527 24.9999C45.8885 25.2677 45.5398 25.4025 45.1911 25.4025C44.8496 25.4025 44.5091 25.274 44.2467 25.0161L24.6856 5.79146C24.3675 5.47873 23.9505 5.32327 23.5336 5.32327C23.1166 5.32327 22.6996 5.47873 22.3815 5.79146L2.82047 25.0161C2.29027 25.5382 1.43656 25.5301 0.914452 24.9999C0.393239 24.4688 0.400428 23.6151 0.931526 23.093L20.4917 3.86837C21.3301 3.04431 22.4318 2.63184 23.5336 2.63184C24.6353 2.63184 25.737 3.04431 26.5755 3.86837L46.1356 23.093C46.6667 23.6151 46.6739 24.4688 46.1527 24.9999Z" fill="#6E6E6E"/>
<path d="M32.8079 25.0648V30.445C32.8079 30.941 32.4062 31.3436 31.9093 31.3436H27.123V36.1307C27.123 36.6268 26.7204 37.0294 26.2244 37.0294H20.8442C20.3482 37.0294 19.9456 36.6268 19.9456 36.1307V31.3436H15.1584C14.6615 31.3436 14.2598 30.941 14.2598 30.445V25.0648C14.2598 24.5688 14.6615 24.1662 15.1584 24.1662H19.9456V19.3791C19.9456 18.8831 20.3482 18.4805 20.8442 18.4805H26.2245C26.7205 18.4805 27.1231 18.8831 27.1231 19.3791V24.1662H31.9094C32.4062 24.1662 32.8079 24.5688 32.8079 25.0648Z" fill="#FF6769"/>
<path d="M32.8073 25.0648V30.445C32.8073 30.941 32.4056 31.3436 31.9086 31.3436H27.1224V36.1307C27.1224 36.6268 26.7198 37.0294 26.2237 37.0294H23.5332V18.4805H26.2237C26.7198 18.4805 27.1224 18.8831 27.1224 19.3791V24.1662H31.9086C32.4056 24.1662 32.8073 24.5688 32.8073 25.0648Z" fill="#FF0C6C"/>
<path d="M46.1523 24.9999C45.8881 25.2677 45.5394 25.4025 45.1908 25.4025C44.8493 25.4025 44.5087 25.274 44.2463 25.0161L24.6853 5.79146C24.3671 5.47874 23.9502 5.32327 23.5332 5.32327V2.63184C24.6349 2.63184 25.7367 3.04431 26.5751 3.86837L46.1352 23.093C46.6663 23.6151 46.6735 24.4689 46.1523 24.9999Z" fill="#5A5A5A"/>
</g>
<defs>
<clipPath id="clip0">
<rect width="46.0105" height="46.0105" fill="white" transform="translate(0.52832 0.678711)"/>
</clipPath>
</defs>
</svg>
