<svg width="64" height="64" viewBox="0 0 64 64" fill="none" xmlns="http://www.w3.org/2000/svg">
<path d="M30.166 45.0369V62.0934C30.166 62.6091 30.584 63.0272 31.0998 63.0272C31.6156 63.0272 32.0335 62.6091 32.0335 62.0934V42.5469L30.166 45.0369Z" fill="#E18F4E"/>
<path d="M61.9141 42.5469V62.0934C61.9141 62.6091 62.332 63.0272 62.8478 63.0272C63.3636 63.0272 63.7816 62.6091 63.7816 62.0934V45.0369L61.9141 42.5469Z" fill="#C27749"/>
<path d="M15.2263 35.6992V60.175L12.13 61.2071C11.6407 61.3702 11.3764 61.8989 11.5393 62.3882C11.7024 62.8775 12.2314 63.142 12.7205 62.9789L16.4552 61.7339C16.8366 61.6067 17.0937 61.2499 17.0937 60.848V35.6992H15.2263Z" fill="#A8E5FF"/>
<path d="M24.5637 35.6992V60.175L27.66 61.2071C28.1493 61.3702 28.4136 61.8989 28.2506 62.3882C28.0875 62.8775 27.5585 63.142 27.0695 62.9789L23.3347 61.7339C22.9534 61.6067 22.6963 61.2499 22.6963 60.848V35.6992H24.5637Z" fill="#A8E5FF"/>
<path d="M12.4249 22.3154C6.76127 22.3154 2.15364 17.7078 2.15364 12.0441C2.15364 11.5284 1.73557 11.1104 1.21989 11.1104C0.704205 11.1104 0.286133 11.5284 0.286133 12.0441C0.286133 18.7375 5.73153 24.1829 12.4249 24.1829H19.8949V22.3154H12.4249Z" fill="#80BF63"/>
<path d="M43.1963 28.8516H50.6663V37.5666H43.1963V28.8516Z" fill="#A8E5FF"/>
<path d="M53.5107 31.9645H57.2448C58.2761 31.9645 59.1123 31.1283 59.1123 30.097V28.2295L53.5107 22.627V31.9645Z" fill="#A8E5FF"/>
<path d="M34.835 28.2295V30.097C34.835 31.1283 35.6711 31.9645 36.7025 31.9645H53.5113C54.5426 31.9645 55.3788 31.1283 55.3788 30.097V22.627L34.835 28.2295Z" fill="#DBF4FF"/>
<path d="M57.2451 15.1572H53.5111L47.9082 20.7597L55.3788 28.2298H59.1126V17.0247C59.1126 15.9932 58.2765 15.1572 57.2451 15.1572Z" fill="#029965"/>
<path d="M55.3788 17.0247C55.3788 15.9934 54.5426 15.1572 53.5113 15.1572H36.7025C35.6711 15.1572 34.835 15.9934 34.835 17.0247V28.2298H55.3788V17.0247Z" fill="#30B054"/>
<path d="M56.249 37.5674L60.0463 45.0374H63.7813V39.4349L56.249 37.5674Z" fill="#C27749"/>
<path d="M33.901 37.5674L30.166 39.435V45.0374H60.0461V37.5674H33.901Z" fill="#E18F4E"/>
<path d="M60.0462 35.6992L58.1787 37.5667L60.0462 39.4342H63.7812V35.6992H60.0462Z" fill="#FFA754"/>
<path d="M30.166 35.6992H60.0461V39.4342H30.166V35.6992Z" fill="#FFCB63"/>
<path d="M19.8945 31.9648V41.3024C22.9887 41.3024 25.4971 38.7941 25.4971 35.6999V31.9648H19.8945Z" fill="#7DD9FF"/>
<path d="M21.762 35.6999V31.9648H14.292V35.6999C14.292 38.7941 16.8003 41.3024 19.8945 41.3024C20.9259 41.3024 21.762 38.7939 21.762 35.6999Z" fill="#A8E5FF"/>
<path d="M24.8747 20.7598H21.1396L21.7622 35.6998H25.4972C26.5285 35.6998 27.3647 34.8637 27.3647 33.8323V23.2498C27.3647 21.8745 26.2499 20.7598 24.8747 20.7598Z" fill="#30B054"/>
<path d="M14.9148 20.7598C13.5396 20.7598 12.4248 21.8745 12.4248 23.2498V33.8323C12.4248 34.8637 13.2609 35.6998 14.2923 35.6998H21.7623C22.7937 35.6998 23.6298 34.8637 23.6298 33.8323V23.2498C23.6298 21.8745 22.5151 20.7598 21.1398 20.7598H14.9148Z" fill="#80BF63"/>
<path d="M46.9736 3.95215H52.5761V7.68716H46.9736V3.95215Z" fill="#30B054"/>
<path d="M45.1061 0.216797V3.95181H41.3711V7.68682H45.1061V11.4218H48.8411V0.216797H45.1061Z" fill="#80BF63"/>
<path d="M19.8945 5.81934V11.5906H24.2141V7.85554C23.1869 6.61303 21.6338 5.81934 19.8945 5.81934Z" fill="#85453D"/>
<path d="M15.5752 11.5906V7.85554C16.6023 6.61303 18.1555 5.81934 19.8947 5.81934C20.6529 5.81934 21.3041 7.1739 21.5967 9.1186C21.5806 9.111 21.5967 11.5906 21.5967 11.5906H15.5752Z" fill="#A45E43"/>
<path d="M24.2141 7.85547C24.0809 8.42195 23.6881 8.91808 23.1104 9.15837C22.5327 9.39741 21.9052 9.32395 21.4109 9.01768L19.8945 17.0243C22.9884 17.0243 25.4971 14.5156 25.4971 11.4218C25.4971 10.0672 25.0146 8.82533 24.2141 7.85547Z" fill="#A45E43"/>
<path d="M21.5964 9.11852C21.5329 9.08864 21.4707 9.05503 21.4109 9.01768C21.0723 9.48954 20.5195 9.79705 19.8945 9.79705C19.3865 9.79705 18.9271 9.59412 18.5897 9.26419C18.5126 9.18824 18.4416 9.10608 18.3781 9.01768C17.8838 9.32395 17.2563 9.39741 16.6787 9.15837C16.4259 9.05378 16.2093 8.8994 16.0325 8.71141C15.8072 8.47112 15.6497 8.17419 15.575 7.85547C14.7744 8.82533 14.292 10.0672 14.292 11.4218C14.292 14.5156 16.8007 17.0243 19.8945 17.0243C20.9254 17.0243 21.762 14.5156 21.762 11.4218C21.762 10.6001 21.7023 9.82071 21.5964 9.11852Z" fill="#C27749"/>
</svg>
