<svg width="19" height="18" viewBox="0 0 19 18" fill="none" xmlns="http://www.w3.org/2000/svg">
<path d="M4.48918 10.8775L3.86262 13.2165L1.57258 13.2649C0.888195 11.9956 0.5 10.5432 0.5 8.99986C0.5 7.50744 0.862953 6.10006 1.50631 4.86084H1.5068L3.54559 5.23462L4.4387 7.26117C4.25177 7.80613 4.14989 8.39112 4.14989 8.99986C4.14996 9.66051 4.26963 10.2935 4.48918 10.8775Z" fill="#FBBB00"/>
<path d="M18.3426 7.31885C18.446 7.86328 18.4999 8.42553 18.4999 9.00016C18.4999 9.6445 18.4321 10.273 18.3031 10.8793C17.865 12.9424 16.7202 14.7438 15.1343 16.0187L15.1338 16.0182L12.5659 15.8872L12.2024 13.6184C13.2547 13.0012 14.0771 12.0354 14.5103 10.8793H9.69775V7.31885H14.5805H18.3426Z" fill="#518EF8"/>
<path d="M15.1338 16.0178L15.1343 16.0183C13.592 17.258 11.6327 17.9998 9.49993 17.9998C6.07251 17.9998 3.09263 16.0841 1.57251 13.2649L4.48911 10.8774C5.24915 12.9059 7.20591 14.3499 9.49993 14.3499C10.486 14.3499 11.4097 14.0833 12.2024 13.618L15.1338 16.0178Z" fill="#28B446"/>
<path d="M15.2447 2.07197L12.3291 4.45894C11.5087 3.94615 10.539 3.64992 9.50004 3.64992C7.15409 3.64992 5.16073 5.16013 4.43877 7.26131L1.50684 4.86098H1.50635C3.00421 1.97307 6.02168 0 9.50004 0C11.6838 0 13.686 0.777867 15.2447 2.07197Z" fill="#F14336"/>
</svg>
