<svg width="60" height="62" viewBox="0 0 60 62" fill="none" xmlns="http://www.w3.org/2000/svg">
<path d="M20.883 13.0938C20.3186 13.2002 19.7601 13.3364 19.21 13.5016L20.883 13.0938Z" fill="#FB7B76"/>
<path d="M50.9975 13.4289C49.9204 13.0316 48.4879 14.2132 47.7977 16.064C47.1076 17.9148 47.4422 19.7238 48.4983 20.1317C42.7472 18.3122 39.422 19.2951 37.7698 20.2467C43.9392 19.6088 49.9832 30.9334 47.9232 43.2827C45.8319 55.8308 42.6949 66.8939 23.8729 57.4829C9.27535 50.1841 6.00241 33.7149 11.1262 24.7431C12.5157 22.159 14.8262 20.1919 17.5989 19.2324C19.3203 18.6197 21.1526 18.3809 22.9736 18.5318C24.1936 18.6496 25.3831 18.9824 26.487 19.5147C31.3703 22.2125 33.2943 28.7166 33.3153 28.7898C33.4404 29.2393 33.8525 29.5484 34.3191 29.5427C34.4182 29.5435 34.5169 29.5294 34.6119 29.5008C34.8772 29.4253 35.1014 29.247 35.2349 29.0056C35.3683 28.7642 35.4 28.4795 35.3229 28.2147C35.2288 27.9114 33.2316 21.0623 27.815 17.8626C28.6141 16.9574 29.4848 16.1181 30.4188 15.353C30.5965 15.2066 30.7847 15.0602 30.973 14.9138C33.1158 13.2256 35.6099 12.0393 38.2717 11.4422C38.6168 11.3585 38.9619 11.2958 39.3278 11.2435C42.1485 10.8499 45.0222 11.1294 47.7141 12.0591C48.8424 12.43 49.9402 12.888 50.9975 13.4289Z" fill="#FB7B76"/>
<path d="M37.7698 20.2461C37.2566 20.5174 36.799 20.8827 36.4209 21.3231L37.7698 20.2461Z" fill="#FB7B76"/>
<path d="M51.7296 17.5071C51.0499 19.337 49.6487 20.4977 48.5717 20.1526C48.5536 20.1543 48.5355 20.1506 48.5194 20.1422C48.509 20.1422 48.509 20.1317 48.4985 20.1317C47.4424 19.7239 47.1182 17.9044 47.7979 16.0641C48.4776 14.2237 49.9206 13.0316 50.9976 13.429C52.0747 13.8263 52.4093 15.6563 51.7296 17.5071Z" fill="#FF5364"/>
<path d="M27.7322 10.0198C26.5893 11.0524 25.631 12.2724 24.8984 13.6273C24.0483 15.1723 23.4016 16.8207 22.9744 18.5315C21.1534 18.3806 19.3211 18.6194 17.5996 19.2321C14.827 20.1916 12.5165 22.1587 11.127 24.7428C10.6669 17.2663 15.9161 14.4952 19.21 13.5019C18.593 12.634 17.5996 10.3439 17.5996 4.59277C17.5996 5.74301 19.7119 6.68411 22.3052 6.68411C24.8984 6.68411 27.0107 5.74301 27.0107 4.59277C26.9783 6.42769 27.2215 8.25707 27.7322 10.0198Z" fill="#DF4D60"/>
<path d="M22.3051 6.68462C24.9039 6.68462 27.0106 5.7483 27.0106 4.59329C27.0106 3.43828 24.9039 2.50195 22.3051 2.50195C19.7063 2.50195 17.5996 3.43828 17.5996 4.59329C17.5996 5.7483 19.7063 6.68462 22.3051 6.68462Z" fill="#802D40"/>
<path d="M36.9442 3.02433V6.33909C36.0648 6.40065 35.191 6.52646 34.33 6.71553C33.4369 6.90773 32.5623 7.17713 31.7158 7.5207V3.02433C31.7158 1.58056 32.8862 0.410156 34.33 0.410156C35.7738 0.410156 36.9442 1.58056 36.9442 3.02433Z" fill="#FB7B76"/>
<path d="M44.6508 3.85066L43.396 7.08177L43.3751 7.10268L43.3646 7.12359C41.6962 6.52145 39.9305 6.23426 38.1572 6.2766L39.6944 2.1985C40.189 0.883266 41.6348 0.194318 42.9679 0.638671C44.301 1.08302 45.0443 2.5017 44.6508 3.85066Z" fill="#FB7B76"/>
<path d="M38.1571 6.27637L38.1465 6.30807L38.1571 6.27637Z" fill="#FB7B76"/>
<path d="M49.3768 9.38203L47.2855 10.7728C47.2019 10.5741 47.1077 10.3754 47.0032 10.1767C46.2058 8.74709 44.9107 7.66041 43.3643 7.12339L43.3747 7.10248L43.3956 7.08156L46.4699 5.03205C47.6711 4.22932 49.2956 4.55235 50.0984 5.75356C50.9011 6.95478 50.5781 8.5793 49.3768 9.38203Z" fill="#FB7B76"/>
<path d="M47.7151 12.0591C45.0232 11.1294 42.1495 10.8499 39.3289 11.2435C38.9733 11.2957 38.6178 11.3585 38.2727 11.4421C35.6109 12.0392 33.1168 13.2255 30.974 14.9138C30.7857 15.0602 30.5975 15.2065 30.4198 15.3529C29.4858 16.1181 28.6151 16.9574 27.816 17.8625C33.2326 21.0623 35.2298 27.9114 35.3239 28.2146C35.401 28.4795 35.3693 28.7642 35.2359 29.0056C35.1024 29.247 34.8782 29.4252 34.6129 29.5008C34.5179 29.5293 34.4192 29.5434 34.3201 29.5426C33.8535 29.5484 33.4414 29.2393 33.3163 28.7898C33.1605 28.2626 32.9701 27.7463 32.7464 27.2443C32.2538 26.0597 31.6516 24.9237 30.9478 23.8511C30.0847 22.5059 29.0004 21.3162 27.7408 20.3324C26.3507 19.3 24.7 18.6764 22.9746 18.5318C23.4018 16.8209 24.0485 15.1725 24.8986 13.6276C26.3936 10.8625 28.804 8.70352 31.7164 7.52089C32.5628 7.17733 33.4375 6.90793 34.3306 6.71573C35.1916 6.52666 36.0653 6.40084 36.9447 6.33929C37.3477 6.29726 37.7526 6.27632 38.1577 6.27655C39.931 6.2342 41.6967 6.52139 43.3651 7.12354C44.9115 7.66055 46.2066 8.74724 47.0041 10.1769C47.1086 10.3756 47.2027 10.5742 47.2864 10.7729C47.4605 11.1906 47.6038 11.6205 47.7151 12.0591Z" fill="#FF5364"/>
<path d="M29.7709 53.7395C29.3341 53.7381 28.9443 53.4654 28.7932 53.0556L22.4146 35.7414L19.2431 43.6707C19.0839 44.0691 18.6976 44.3299 18.2685 44.3285H1.53785C0.960349 44.3285 0.492188 43.8603 0.492188 43.2828C0.492188 42.7053 0.960349 42.2371 1.53785 42.2371H17.5606L21.4798 32.4382C21.6403 32.0361 22.032 31.7746 22.4649 31.7804C22.8978 31.7862 23.2823 32.0581 23.432 32.4643L29.7792 49.6927L35.0651 35.595C35.2154 35.1952 35.5938 34.9269 36.0208 34.9175C36.4446 34.9187 36.829 35.166 37.0058 35.5511L39.871 42.2371H58.0039C58.5814 42.2371 59.0496 42.7053 59.0496 43.2828C59.0496 43.8603 58.5814 44.3285 58.0039 44.3285H39.1819C38.7637 44.3284 38.3857 44.0792 38.2209 43.6948L36.1097 38.7686L30.7507 53.0619C30.5972 53.4699 30.2068 53.7399 29.7709 53.7395Z" fill="#F3D55B"/>
</svg>
