<svg width="22" height="22" viewBox="0 0 43 38" fill="none" xmlns="http://www.w3.org/2000/svg">
<path d="M42.4459 10.8405V29.9441C42.4459 30.9476 42.2197 31.9413 41.7801 32.8684C41.3405 33.7955 40.6961 34.6379 39.8839 35.3474C39.0716 36.057 38.1072 36.6199 37.0459 37.0039C35.9846 37.3879 34.8471 37.5855 33.6984 37.5855H17.6612C16.5124 37.5855 15.3749 37.3879 14.3136 37.0039C13.2523 36.6199 12.288 36.057 11.4757 35.3474C10.6634 34.6379 10.019 33.7955 9.57944 32.8684C9.13983 31.9413 8.91358 30.9476 8.91359 29.9441V18.3809C6.48629 18.0754 4.26615 17.0164 2.6597 15.3978C1.05326 13.7792 0.167995 11.7092 0.166016 9.56695V7.65659H3.08187V9.22627C3.08187 12.0576 5.04826 14.6851 8.11537 15.6013C11.9042 16.7332 15.5563 14.8547 17.0306 11.935C17.6821 10.6455 17.6612 8.93016 17.6612 8.93016V7.65659H20.577V9.56695C20.575 11.7092 19.6898 13.7792 18.0833 15.3978C16.4769 17.0164 14.2567 18.0754 11.8294 18.3809V29.9441C11.8294 30.6131 11.9802 31.2756 12.2732 31.8937C12.5663 32.5118 12.9958 33.0734 13.5374 33.5464C14.0789 34.0195 14.7218 34.3947 15.4294 34.6507C16.137 34.9067 16.8953 35.0384 17.6612 35.0384H33.6984C34.4642 35.0384 35.2226 34.9067 35.9301 34.6507C36.6377 34.3947 37.2806 34.0195 37.8221 33.5464C38.3637 33.0734 38.7932 32.5118 39.0863 31.8937C39.3793 31.2756 39.5301 30.6131 39.5301 29.9441V10.8405C39.5301 10.0849 39.2736 9.34615 38.793 8.71783C38.3124 8.08951 37.6293 7.59979 36.8301 7.31062C36.0309 7.02144 35.1515 6.94579 34.3031 7.09323C33.4547 7.24068 32.6753 7.60459 32.0637 8.13895C32.0063 8.1891 31.9507 8.24084 31.8969 8.29337C31.1777 8.99285 30.7807 9.90031 30.7825 10.8405H27.8667C27.8667 9.15166 28.6347 7.53197 30.0017 6.33776C31.3688 5.14355 33.223 4.47266 35.1563 4.47266C37.0896 4.47266 38.9438 5.14355 40.3109 6.33776C41.6779 7.53197 42.4459 9.15166 42.4459 10.8405Z" fill="#F35244"/>
<path d="M4.53935 1.9248C3.57303 1.9258 2.64662 2.26156 1.96333 2.85845C1.28004 3.45534 0.895667 4.26461 0.894531 5.10873V7.65587H2.35246V5.10873C2.35309 4.60224 2.5837 4.11666 2.99368 3.75852C3.40367 3.40037 3.95955 3.19893 4.53935 3.19838H5.99728V1.9248H4.53935Z" fill="#E0E0DE"/>
<path d="M16.204 1.9248H14.7461V3.19838H16.204C16.7838 3.19893 17.3397 3.40037 17.7497 3.75852C18.1597 4.11666 18.3903 4.60224 18.3909 5.10873V7.65587H19.8488V5.10873C19.8477 4.26461 19.4633 3.45534 18.78 2.85845C18.0968 2.26156 17.1703 1.9258 16.204 1.9248Z" fill="#E0E0DE"/>
<path d="M6.72693 4.47306C7.93472 4.47306 8.91382 3.61777 8.91382 2.5627C8.91382 1.50764 7.93472 0.652344 6.72693 0.652344C5.51914 0.652344 4.54004 1.50764 4.54004 2.5627C4.54004 3.61777 5.51914 4.47306 6.72693 4.47306Z" fill="#A3A3A1"/>
<path d="M14.016 4.47306C15.2238 4.47306 16.2029 3.61777 16.2029 2.5627C16.2029 1.50764 15.2238 0.652344 14.016 0.652344C12.8082 0.652344 11.8291 1.50764 11.8291 2.5627C11.8291 3.61777 12.8082 4.47306 14.016 4.47306Z" fill="#A3A3A1"/>
<path d="M32.2405 37.585H14.7453V10.2032H36.6143V33.7642C36.6143 34.7776 36.1535 35.7494 35.3332 36.4659C34.513 37.1824 33.4005 37.585 32.2405 37.585Z" fill="#4DB7E5"/>
<path d="M16.9316 23.5781H34.4268V24.8517H16.9316V23.5781Z" fill="#348FD9"/>
<path d="M16.9316 26.7607H34.4268V28.0343H16.9316V26.7607Z" fill="#348FD9"/>
<path d="M16.9316 29.9443H34.4268V31.2179H16.9316V29.9443Z" fill="#348FD9"/>
<path d="M18.3887 20.3936H34.4259V21.6671H18.3887V20.3936Z" fill="#348FD9"/>
<path d="M17.6602 14.0254H33.6974V17.8461H17.6602V14.0254Z" fill="#348FD9"/>
<path d="M27.866 33.7646H5.99707C5.99707 34.2664 6.1102 34.7632 6.33 35.2268C6.5498 35.6903 6.87198 36.1115 7.27812 36.4663C7.68426 36.8211 8.16643 37.1025 8.69708 37.2945C9.22773 37.4865 9.79648 37.5854 10.3709 37.5854H32.2398C31.6654 37.5854 31.0967 37.4865 30.566 37.2945C30.0353 37.1025 29.5532 36.8211 29.147 36.4663C28.7409 36.1115 28.4187 35.6903 28.1989 35.2268C27.9791 34.7632 27.866 34.2664 27.866 33.7646Z" fill="#47A2D4"/>
<path d="M29.324 21.0291C31.7396 21.0291 33.6978 19.3185 33.6978 17.2084C33.6978 15.0983 31.7396 13.3877 29.324 13.3877C26.9084 13.3877 24.9502 15.0983 24.9502 17.2084C24.9502 19.3185 26.9084 21.0291 29.324 21.0291Z" fill="#FB685B"/>
<path d="M29.3244 21.666C28.3152 21.666 27.3286 21.4046 26.4895 20.9148C25.6504 20.425 24.9963 19.7288 24.6101 18.9143C24.2239 18.0998 24.1228 17.2035 24.3197 16.3389C24.5166 15.4742 25.0026 14.6799 25.7162 14.0566C26.4299 13.4332 27.3391 13.0086 28.3289 12.8366C29.3188 12.6646 30.3448 12.7529 31.2772 13.0903C32.2096 13.4277 33.0065 13.999 33.5672 14.732C34.1279 15.4651 34.4272 16.3269 34.4272 17.2085C34.4256 18.3903 33.8875 19.5232 32.9309 20.3589C31.9743 21.1945 30.6773 21.6646 29.3244 21.666ZM29.3244 14.0246C28.6036 14.0246 27.8989 14.2113 27.2995 14.5611C26.7001 14.911 26.2329 15.4083 25.9571 15.99C25.6812 16.5718 25.609 17.212 25.7496 17.8296C25.8903 18.4473 26.2374 19.0146 26.7472 19.4599C27.2569 19.9051 27.9063 20.2084 28.6134 20.3312C29.3204 20.4541 30.0532 20.391 30.7192 20.15C31.3852 19.9091 31.9545 19.501 32.355 18.9774C32.7555 18.4538 32.9692 17.8382 32.9692 17.2085C32.9681 16.3644 32.5837 15.5551 31.9005 14.9582C31.2172 14.3613 30.2907 14.0255 29.3244 14.0246Z" fill="#CF3B2E"/>
<path d="M28.5957 10.8408H30.0536V15.9351H28.5957V10.8408Z" fill="#E0E0DE"/>
<path d="M29.3246 19.1186C28.8921 19.1186 28.4692 19.0065 28.1096 18.7966C27.75 18.5867 27.4697 18.2884 27.3042 17.9393C27.1386 17.5902 27.0953 17.2061 27.1797 16.8355C27.2641 16.4649 27.4724 16.1246 27.7782 15.8574C28.0841 15.5902 28.4737 15.4083 28.8979 15.3346C29.3222 15.2608 29.7619 15.2987 30.1615 15.4433C30.5611 15.5879 30.9026 15.8327 31.1429 16.1469C31.3832 16.461 31.5115 16.8304 31.5115 17.2082C31.5108 17.7147 31.2802 18.2003 30.8703 18.5584C30.4603 18.9166 29.9044 19.118 29.3246 19.1186ZM29.3246 16.5714C29.1804 16.5714 29.0395 16.6088 28.9196 16.6787C28.7997 16.7487 28.7063 16.8482 28.6511 16.9645C28.5959 17.0809 28.5815 17.2089 28.6096 17.3324C28.6378 17.456 28.7072 17.5694 28.8091 17.6585C28.9111 17.7476 29.041 17.8082 29.1824 17.8328C29.3238 17.8573 29.4703 17.8447 29.6035 17.7965C29.7367 17.7483 29.8506 17.6667 29.9307 17.562C30.0108 17.4573 30.0536 17.3342 30.0536 17.2082C30.0534 17.0394 29.9765 16.8775 29.8398 16.7581C29.7032 16.6387 29.5179 16.5716 29.3246 16.5714Z" fill="#CF3B2E"/>
<path d="M31.8965 8.29297C31.1773 8.99245 30.7802 9.89991 30.7821 10.8401H27.8662C27.8649 9.96348 28.0718 9.09614 28.474 8.29297H31.8965Z" fill="#F35244"/>
</svg>
