<svg width="15" height="20" viewBox="0 0 15 20" fill="none" xmlns="http://www.w3.org/2000/svg">
<path d="M7.52007 0C4.11778 0 1.91411 1.27746 0.184003 3.5557C-0.129846 3.96898 -0.0330867 4.53562 0.404715 4.83984L2.24347 6.11754C2.68562 6.42477 3.31473 6.35293 3.66089 5.95551C4.7286 4.72969 5.52062 4.02391 7.18841 4.02391C8.49972 4.02391 10.1217 4.79731 10.1217 5.96262C10.1217 6.84355 9.32814 7.29598 8.03336 7.96121C6.52346 8.73699 4.52536 9.70246 4.52536 12.1177V12.5C4.52536 13.0178 4.98337 13.4375 5.54837 13.4375H8.63744C9.20244 13.4375 9.66045 13.0178 9.66045 12.5V12.2745C9.66045 10.6003 15 10.5305 15 6C15 2.58813 11.1381 0 7.52007 0ZM7.09293 14.5882C5.46482 14.5882 4.14025 15.8021 4.14025 17.2941C4.14025 18.7861 5.46482 20 7.09293 20C8.72103 20 10.0456 18.7861 10.0456 17.2941C10.0456 15.8021 8.72103 14.5882 7.09293 14.5882Z" fill="#77869E"/>
</svg>
