<svg width="25" height="22" viewBox="0 0 25 22" fill="none" xmlns="http://www.w3.org/2000/svg">
<path fill-rule="evenodd" clip-rule="evenodd" d="M23.9636 20.3701H0.999457C0.450543 20.3701 0 20.7282 0 21.1665V21.205C0 21.6434 0.450543 22.0003 0.999457 22.0003H23.9636C24.5152 22.0003 24.9625 21.6434 24.9625 21.205V21.1665C24.9625 20.7282 24.5152 20.3701 23.9636 20.3701Z" fill="#E05706"/>
<path fill-rule="evenodd" clip-rule="evenodd" d="M13.28 7.38477H11.6849C11.1692 7.38477 10.7496 7.80937 10.7496 8.33297V15.3108C10.7496 15.8333 11.1692 16.2579 11.6849 16.2579H13.28C13.798 16.2579 14.217 15.8333 14.217 15.3108V8.33297C14.217 7.80937 13.798 7.38477 13.28 7.38477ZM6.26156 7.38477H4.66482C4.15232 7.38477 3.72949 7.81157 3.72949 8.33297V15.3108C3.72949 15.8333 4.15232 16.259 4.66482 16.259H6.26156C6.77786 16.259 7.19797 15.8333 7.19797 15.3108V8.33297C7.19797 7.81157 6.77786 7.38477 6.26156 7.38477ZM20.2974 7.38477H18.7039C18.1882 7.38477 17.7692 7.80937 17.7692 8.33297V15.3108C17.7692 15.8333 18.1882 16.2579 18.7039 16.2579H20.2974C20.8154 16.2579 21.2344 15.8333 21.2344 15.3108V8.33297C21.2344 7.80937 20.8154 7.38477 20.2974 7.38477Z" fill="#E05706"/>
<path fill-rule="evenodd" clip-rule="evenodd" d="M24.4263 4.66359L12.697 0.0309375C12.5589 -0.0103125 12.4111 -0.0103125 12.2752 0.0309375L0.538261 4.66359C0.209457 4.75819 0.00293488 5.06289 0.0561958 5.37584C0.109457 5.69209 0.405652 5.92474 0.748044 5.92474H24.2138C24.5627 5.92474 24.8595 5.69209 24.91 5.37584C24.9616 5.06289 24.7578 4.75819 24.4263 4.66359Z" fill="#E05706"/>
<path fill-rule="evenodd" clip-rule="evenodd" d="M23.7402 18.3652V18.4031C23.7402 18.842 23.2929 19.1995 22.7412 19.1995H2.22222C1.67277 19.1995 1.22168 18.842 1.22168 18.4031V18.3652C1.22168 17.9268 1.67277 17.5693 2.22222 17.5693H22.7412C23.2929 17.5693 23.7402 17.9268 23.7402 18.3652Z" fill="#E05706"/>
</svg>
