<svg width="56" height="56" viewBox="0 0 56 56" fill="none" xmlns="http://www.w3.org/2000/svg">
<g clip-path="url(#clip0)">
<path d="M55.1701 55.8341H1.79857C1.35392 55.8341 0.993164 55.4734 0.993164 55.0287V53.5031C0.993164 53.058 1.35392 52.6973 1.79857 52.6973H55.1701C55.6148 52.6973 55.9755 53.058 55.9755 53.5031V55.0287C55.9755 55.4734 55.6148 55.8341 55.1701 55.8341Z" fill="#7D7D7D"/>
<path d="M0.993164 53.527V54.108H55.9755V53.527C55.9755 53.0689 55.6043 52.6973 55.1458 52.6973H1.8229C1.36441 52.6973 0.993164 53.0689 0.993164 53.527H0.993164Z" fill="#525252"/>
<path d="M14.6348 14.8086H42.3341V52.6967H14.6348V14.8086Z" fill="#B6E5F0"/>
<path d="M43.6082 11.8223C44.0663 11.8223 44.438 12.1935 44.438 12.652V13.9792C44.438 14.4377 44.0663 14.809 43.6082 14.809H13.361C12.9029 14.809 12.5312 14.4377 12.5312 13.9792V12.652C12.5312 12.1939 12.9029 11.8223 13.361 11.8223H43.6082Z" fill="#7D7D7D"/>
<path d="M39.2891 11.8223V14.809H43.6081C44.0661 14.809 44.4378 14.4377 44.4378 13.9792V12.652C44.4378 12.1939 44.0661 11.8223 43.6081 11.8223H39.2891Z" fill="#525252"/>
<path d="M14.6347 23.3451H1.79857C1.35392 23.3451 0.993164 22.9844 0.993164 22.5393V21.1638C0.993164 20.7187 1.35392 20.3584 1.79857 20.3584H14.6347V23.3451Z" fill="#7D7D7D"/>
<path d="M12.001 20.3584H14.6349V23.3451H12.001V20.3584Z" fill="#525252"/>
<path d="M12.001 20.3584H14.6349V23.3451H12.001V20.3584Z" fill="#525252"/>
<path d="M35.8968 52.6975H21.0723V41.0338C21.0723 39.7682 22.0983 38.7422 23.3639 38.7422H33.6052C34.8707 38.7422 35.8964 39.7682 35.8964 41.0338V52.6975H35.8968Z" fill="#5B9ED6"/>
<path d="M26.5859 38.7422H30.3839V52.6975H26.5859V38.7422Z" fill="#4D86B5"/>
<path d="M2.19141 23.3447H14.6345V52.6972H2.19141V23.3447Z" fill="#B6E5F0"/>
<path d="M12.001 23.3447H14.6349V52.6972H12.001V23.3447Z" fill="#9BC3CC"/>
<path d="M12.001 23.3447H14.6349V52.6972H12.001V23.3447Z" fill="#9BC3CC"/>
<path d="M54.7771 52.6968H42.334V23.3447H54.7771V52.6968Z" fill="#B6E5F0"/>
<path d="M42.334 23.3447H44.9679V52.6972H42.334V23.3447Z" fill="#9BC3CC"/>
<path d="M21.3133 29.634H18.5447C18.0669 29.634 17.6797 29.2464 17.6797 28.7686V21.5754C17.6797 21.0976 18.0669 20.71 18.5447 20.71H21.3133C21.791 20.71 22.1782 21.0976 22.1782 21.5754V28.7686C22.1786 29.2464 21.791 29.634 21.3133 29.634Z" fill="#5B9ED6"/>
<path d="M29.8689 29.634H27.1003C26.6225 29.634 26.2354 29.2464 26.2354 28.7686V21.5754C26.2354 21.0976 26.6225 20.71 27.1003 20.71H29.8689C30.3467 20.71 30.7339 21.0976 30.7339 21.5754V28.7686C30.7339 29.2464 30.3467 29.634 29.8689 29.634Z" fill="#5B9ED6"/>
<path d="M38.4246 29.634H35.656C35.1782 29.634 34.791 29.2464 34.791 28.7686V21.5754C34.791 21.0976 35.1782 20.71 35.656 20.71H38.4246C38.9024 20.71 39.2896 21.0976 39.2896 21.5754V28.7686C39.2896 29.2464 38.9024 29.634 38.4246 29.634Z" fill="#5B9ED6"/>
<path d="M9.79762 42.4837H7.02946C6.55166 42.4837 6.16406 42.096 6.16406 41.6183V34.425C6.16406 33.9472 6.55166 33.5596 7.02946 33.5596H9.79762C10.2758 33.5596 10.663 33.9472 10.663 34.425V41.6183C10.663 42.0965 10.2758 42.4837 9.79762 42.4837Z" fill="#5B9ED6"/>
<path d="M47.172 42.4837H49.9402C50.418 42.4837 50.8056 42.096 50.8056 41.6183V34.425C50.8056 33.9472 50.418 33.5596 49.9402 33.5596H47.172C46.6938 33.5596 46.3066 33.9472 46.3066 34.425V41.6183C46.3066 42.0965 46.6938 42.4837 47.172 42.4837Z" fill="#5B9ED6"/>
<path d="M55.1458 20.3584C55.6043 20.3584 55.9756 20.7296 55.9756 21.1881V22.5154C55.9756 22.9735 55.6043 23.3451 55.1458 23.3451H42.334V20.3584H55.1458Z" fill="#7D7D7D"/>
<path d="M42.334 20.3584H44.9679V23.3451H42.334V20.3584Z" fill="#525252"/>
<path d="M36.2062 11.8223V2.63856C36.2062 1.65152 35.4063 0.851562 34.4192 0.851562H22.5487C21.5617 0.851562 20.7617 1.65152 20.7617 2.63856V11.8223H36.2062Z" fill="#EF2D57"/>
<path d="M33.4775 0.851562V11.8223H36.2063V2.63856C36.2063 1.65152 35.4063 0.851562 34.4193 0.851562H33.4775Z" fill="#D4284D"/>
<path d="M31.0293 5.50747H29.3144V3.79263C29.3144 3.33413 28.9432 2.96289 28.4847 2.96289C28.0262 2.96289 27.6549 3.33413 27.6549 3.79263V5.50747H25.9401C25.482 5.50747 25.1104 5.87872 25.1104 6.33721C25.1104 6.79529 25.482 7.16695 25.9401 7.16695H27.6549V8.88138C27.6549 9.33987 28.0262 9.71153 28.4847 9.71153C28.9432 9.71153 29.3144 9.33987 29.3144 8.88138V7.16653H31.0293C31.4873 7.16653 31.859 6.79529 31.859 6.33679C31.859 5.87872 31.4873 5.50747 31.0293 5.50747Z" fill="white"/>
</g>
<defs>
<clipPath id="clip0">
<rect width="54.9825" height="54.9825" fill="white" transform="translate(0.993164 0.851562)"/>
</clipPath>
</defs>
</svg>
