<svg width="64" height="63" viewBox="0 0 64 63" fill="none" xmlns="http://www.w3.org/2000/svg">
<g clip-path="url(#clip0)">
<path d="M52.0889 25.8861V13.4795H36.6404V25.8861C29.9912 28.8467 25.3555 35.5116 25.3555 43.2595C25.3555 53.758 33.8659 62.2685 44.3644 62.2685C54.8629 62.2685 63.3738 53.758 63.3738 43.2595C63.3738 35.5116 58.7375 28.8467 52.0889 25.8861Z" fill="#C9FFF7"/>
<path d="M59.5266 43.2605C59.5266 51.6212 52.7253 58.422 44.3636 58.422C41.6131 58.422 39.0319 57.6863 36.8061 56.4C32.2641 53.7791 29.2021 48.8707 29.2021 43.2605C29.2021 39.0663 30.9395 35.1414 33.8604 32.3291H54.8679C57.7892 35.1414 59.5266 39.0663 59.5266 43.2605Z" fill="#F7D360"/>
<path d="M40.1132 25.8874V22.4537C40.1132 20.5934 41.621 19.0856 43.4809 19.0856H52.0889V15.4037L49.0255 12.6159L46.1405 11.8467L36.6408 15.4033V25.8874C29.9907 28.8479 25.3555 35.5119 25.3555 43.2608C25.3555 53.7138 33.7927 62.196 44.2304 62.2678C38.5141 62.1358 33.9032 53.6765 33.9032 43.2608C33.9032 35.5119 36.4548 28.8479 40.1132 25.8874Z" fill="#72CEC0"/>
<path d="M36.8061 56.4C32.2641 53.7791 29.2021 48.8707 29.2021 43.2605C29.2021 39.0663 30.9395 35.1414 33.8604 32.3291H35.8059C34.6066 35.4207 33.903 39.1906 33.903 43.2605C33.903 48.3574 35.007 52.9855 36.8061 56.4Z" fill="#E58E13"/>
<path d="M37.8443 54.0026L25.4994 32.6206V21.5576H13.7672V32.6206L1.42231 54.0026C-0.698719 57.6764 1.95233 62.2686 6.19487 62.2686H33.0723C37.3143 62.2686 39.9658 57.6764 37.8443 54.0026Z" fill="#E6E6E6"/>
<path d="M25.4991 21.5582L21.9071 19.54L15.0231 19.6118L13.7665 21.5582V32.6207L1.42202 54.0037C-0.700449 57.6774 1.95156 62.2692 6.19314 62.2692H13.5306C11.6043 62.2692 10.4003 57.6774 11.3632 54.0037L16.9695 32.6207V26.9412C16.9695 25.774 17.9157 24.8283 19.0829 24.8283H25.4991V21.5582Z" fill="#CCCCCC"/>
<path d="M29.7524 19.057C29.7524 20.438 28.6331 21.5574 27.252 21.5574H12.0131C11.3233 21.5574 10.6976 21.278 10.2451 20.825C9.79253 20.3725 9.5127 19.7468 9.5127 19.057C9.5127 17.676 10.632 16.5566 12.0131 16.5566H27.252C27.9418 16.5566 28.5675 16.836 29.0201 17.2885C29.4726 17.7415 29.7524 18.3672 29.7524 19.057Z" fill="#CCCCCC"/>
<path d="M29.7527 19.057C29.7527 20.438 28.6334 21.5574 27.2524 21.5574H18.0775C17.3863 21.5574 16.762 21.278 16.309 20.825C15.8565 20.3725 15.5771 19.7468 15.5771 19.057C15.5771 17.676 16.6965 16.5566 18.0775 16.5566H27.2524C27.9422 16.5566 28.5679 16.836 29.0204 17.2885C29.4729 17.7415 29.7527 18.3672 29.7527 19.057Z" fill="#E6E6E6"/>
<path d="M56.3957 12.9027C56.3957 14.2837 55.2764 15.4031 53.8954 15.4031H35.0448C34.3536 15.4031 33.7288 15.1237 33.2763 14.6712C32.8238 14.2182 32.5439 13.5925 32.5439 12.9027C32.5439 11.5217 33.6638 10.4023 35.0448 10.4023H53.8954C54.5852 10.4023 55.2108 10.6817 55.6634 11.1347C56.1164 11.5872 56.3957 12.2129 56.3957 12.9027Z" fill="#72CEC0"/>
<path d="M56.3959 12.9027C56.3959 14.2837 55.2765 15.4031 53.8955 15.4031H40.8881C40.1983 15.4031 39.5726 15.1237 39.1196 14.6712C38.6671 14.2182 38.3877 13.5925 38.3877 12.9027C38.3877 11.5217 39.507 10.4023 40.8881 10.4023H53.8955C54.5853 10.4023 55.211 10.6817 55.6635 11.1347C56.1165 11.5872 56.3959 12.2129 56.3959 12.9027Z" fill="#C9FFF7"/>
<path d="M34.5119 57.5901C34.3325 57.9016 33.9068 58.422 33.072 58.422H6.19418C5.35801 58.422 4.93227 57.9016 4.75289 57.5901C4.57351 57.2797 4.33481 56.6502 4.75289 55.9269L13.8249 40.2139H25.4413L34.5119 55.9269C34.93 56.6502 34.6913 57.2797 34.5119 57.5901Z" fill="#FC5F61"/>
<path d="M11.3628 54.0034C10.9849 55.4462 10.9409 57.0295 11.1437 58.422H6.19418C5.35801 58.422 4.93227 57.9016 4.75289 57.5901C4.57351 57.2797 4.33481 56.6502 4.75289 55.9269L13.8249 40.2139H14.9777L11.3628 54.0034Z" fill="#E83842"/>
<path d="M21.7011 51.1768C20.8276 51.1768 20.4119 50.0541 21.0773 49.4844C21.7389 48.918 22.7774 49.4958 22.6525 50.3569C22.5851 50.8228 22.1708 51.1768 21.7011 51.1768Z" fill="#E83842"/>
<path d="M17.4592 11.75C16.6196 11.75 16.1882 10.7005 16.7794 10.1073C17.099 9.78731 17.617 9.73756 17.9925 9.98822C18.3216 10.2073 18.4857 10.6197 18.3953 11.0047C18.2948 11.4348 17.9016 11.75 17.4592 11.75Z" fill="#E83842"/>
<path d="M21.2864 8.09509C20.4162 8.09509 19.991 6.96809 20.6616 6.40172C20.9807 6.13192 21.4461 6.09748 21.8006 6.32087C22.1412 6.53566 22.3148 6.95756 22.223 7.35029C22.1225 7.77938 21.7293 8.09509 21.2864 8.09509Z" fill="#E83842"/>
<path d="M19.2016 2.51769C18.7816 2.51769 18.4037 2.23546 18.2807 1.83508C18.1587 1.43565 18.3195 0.987433 18.6668 0.755909C19.3805 0.279466 20.3463 0.952992 20.1334 1.78964C20.0258 2.21155 19.6378 2.51769 19.2016 2.51769Z" fill="#E83842"/>
<path d="M52.8085 38.2921C51.9537 38.2921 51.5275 37.2005 52.158 36.6217C52.7621 36.0672 53.7705 36.5097 53.7705 37.3301C53.7705 37.853 53.3323 38.2921 52.8085 38.2921Z" fill="white"/>
<path d="M53.4789 44.7052C52.6413 44.7052 52.2022 43.6552 52.7991 43.064C53.0976 42.7684 53.5616 42.7 53.9324 42.8966C54.2878 43.0855 54.4877 43.4878 54.4303 43.8853C54.3624 44.3517 53.9482 44.7052 53.4789 44.7052Z" fill="white"/>
<path d="M40.9349 51.9466C40.5236 51.9466 40.1514 51.6763 40.0222 51.2864C39.8854 50.875 40.0514 50.4082 40.4164 50.1747C41.1406 49.7112 42.0916 50.4082 41.8615 51.24C41.7481 51.6514 41.3626 51.9466 40.9349 51.9466Z" fill="white"/>
<path d="M36.5109 43.868C35.6417 43.868 35.2198 42.7472 35.8824 42.1794C36.2005 41.9063 36.6664 41.8723 37.0218 42.0928C37.359 42.3028 37.5341 42.7157 37.4518 43.1046C37.359 43.5437 36.9606 43.868 36.5109 43.868Z" fill="white"/>
<path d="M48.2435 41.5593C47.3839 41.5593 46.9582 40.4615 47.5982 39.886C47.9173 39.599 48.3947 39.5589 48.7582 39.7861C49.0907 39.9946 49.2634 40.4012 49.1873 40.7863C49.0993 41.2302 48.6956 41.5593 48.2435 41.5593Z" fill="white"/>
<path d="M14.9702 53.169C14.5841 53.169 14.2297 52.9307 14.0814 52.5753C13.9187 52.184 14.0402 51.7138 14.3741 51.4521C15.0596 50.9159 16.089 51.5339 15.9125 52.3955C15.8216 52.8394 15.4246 53.169 14.9702 53.169Z" fill="#E83842"/>
<path d="M17.4712 46.9459C17.0689 46.9459 16.7016 46.6871 16.5657 46.3083C16.4212 45.9055 16.5691 45.4396 16.9211 45.1956C17.6057 44.7216 18.5657 45.3229 18.4179 46.149C18.3366 46.6034 17.9343 46.9459 17.4712 46.9459Z" fill="#E83842"/>
</g>
<defs>
<clipPath id="clip0">
<rect width="62.6991" height="62.6991" fill="white" transform="translate(0.674805 0.107422)"/>
</clipPath>
</defs>
</svg>
