<svg width="34" height="32" viewBox="0 0 34 32" fill="none" xmlns="http://www.w3.org/2000/svg">
<path d="M33.0782 17.6679C32.8335 15.9724 31.5015 14.6404 29.806 14.3957V13.3922C29.806 10.6236 27.7014 8.36935 25.1143 8.36935C22.6018 8.36935 20.4983 10.5551 20.4226 13.2421H20.4546L20.4226 13.2476V24.1251C20.4226 27.6025 17.8229 30.4263 14.627 30.4263C11.4312 30.4263 8.83141 27.5986 8.83141 24.1251V23.1829C9.63176 23.1829 10.4873 22.6028 10.4873 20.9751V19.5869C14.0298 18.6811 16.5589 15.6393 16.5589 12.1906V11.0397H15.455L15.4318 3.85594C15.4238 2.52619 14.4696 1.39081 13.161 1.15408C12.8787 0.289363 11.9489 -0.182841 11.0841 0.0994879C10.2194 0.381748 9.74719 1.3116 10.0295 2.17639C10.3118 3.04111 11.2416 3.51331 12.1064 3.23098C12.5694 3.07981 12.9418 2.73146 13.1235 2.27954C13.8306 2.48073 14.3205 3.12404 14.3262 3.85925L14.351 11.0397H13.2471V12.2066C13.2031 14.1265 11.9159 15.795 10.07 16.3248C9.08235 16.6382 8.02189 16.6382 7.03422 16.3248C5.19045 15.7932 3.90617 14.125 3.86374 12.2066V11.0397H2.20785V3.86422C2.21103 3.11817 2.71276 2.46631 3.43321 2.27236C3.76915 3.12756 4.73474 3.54843 5.58994 3.21249C6.44513 2.87655 6.86601 1.91089 6.53007 1.05576C6.19413 0.200635 5.22847 -0.220306 4.37334 0.115633C3.90997 0.297712 3.55243 0.677669 3.39899 1.15132C2.07614 1.37735 1.10758 2.52219 1.10393 3.86422V11.0397H0V12.1878C0 15.6404 2.53075 18.6833 6.07159 19.5869V20.9751C6.07159 22.6028 6.92714 23.1829 7.72748 23.1829V24.1251C7.72748 28.2097 10.8223 31.5303 14.627 31.5303C18.4317 31.5303 21.5266 28.2058 21.5266 24.1251V13.2741C21.5818 11.1794 23.1924 9.47493 25.1143 9.47493C27.0926 9.47493 28.7021 11.2324 28.7021 13.3939V14.3957C26.5901 14.7005 25.1251 16.6598 25.4299 18.7718C25.7347 20.8838 27.694 22.3488 29.806 22.044C31.918 21.7391 33.383 19.7798 33.0782 17.6679ZM11.5912 2.20833C11.2864 2.20833 11.0393 1.96119 11.0393 1.65637C11.0393 1.35155 11.2864 1.10441 11.5912 1.10441C11.896 1.10441 12.1432 1.35155 12.1432 1.65637C12.1432 1.96119 11.896 2.20833 11.5912 2.20833ZM4.96767 1.10441C5.27249 1.10441 5.51963 1.35155 5.51963 1.65637C5.51963 1.96119 5.27249 2.20833 4.96767 2.20833C4.66285 2.20833 4.4157 1.96119 4.4157 1.65637C4.4157 1.35155 4.66285 1.10441 4.96767 1.10441ZM1.10393 12.1878V12.1437H2.75982V12.2066C2.80121 14.6056 4.39728 16.6993 6.69973 17.3746C7.90625 17.7567 9.20129 17.7567 10.4078 17.3746C12.7114 16.7002 14.3089 14.6065 14.351 12.2066V12.1437H15.455V12.1878C15.455 15.2584 13.0881 17.9603 9.82494 18.6138C9.05868 18.7672 8.27379 18.8057 7.49621 18.728C7.24024 18.7032 6.98578 18.6647 6.73395 18.6127C3.47074 17.9603 1.10393 15.2584 1.10393 12.1878ZM7.72748 22.079C7.23072 22.079 7.17552 21.3063 7.17552 20.9751V19.8038C7.21968 19.8093 7.26494 19.8115 7.30965 19.816C7.36484 19.822 7.42004 19.8264 7.47524 19.8314C7.73631 19.8546 7.9996 19.8701 8.2651 19.8706H8.29269C8.55764 19.8706 8.82037 19.8546 9.07979 19.8314C9.13499 19.8264 9.1935 19.822 9.25035 19.816C9.29395 19.811 9.33922 19.8093 9.38282 19.8038V20.9751C9.38282 21.3063 9.32762 22.079 8.83086 22.079H7.72748ZM29.254 20.9751C27.7299 20.9751 26.4942 19.7394 26.4942 18.2153C26.4942 16.6911 27.7299 15.4554 29.254 15.4554C30.7782 15.4554 32.0139 16.6911 32.0139 18.2153C32.0121 19.7388 30.7775 20.9733 29.254 20.9751Z" fill="white"/>
</svg>
