<svg width="62" height="62" viewBox="0 0 62 62" fill="none" xmlns="http://www.w3.org/2000/svg">
<g clip-path="url(#clip0)">
<path d="M58.9765 49.4811L56.3478 45.5285L51.7332 38.6113H10.2303L7.59195 42.564L0.348633 53.4338H61.6148L58.9765 49.4811Z" fill="#A0D468"/>
<path d="M28.9064 43.5521C27.7209 42.3453 26.1388 40.6479 24.4886 38.6113C20.507 33.6801 16.1592 26.7137 16.1592 19.8361C16.1592 11.6543 22.7897 5.01367 30.9816 5.01367C39.1736 5.01367 45.8041 11.6543 45.8041 19.8361C45.8041 26.7137 41.4563 33.6801 37.4737 38.6113C35.8236 40.6479 34.2414 42.3453 33.0559 43.5521H33.0458C31.8009 44.8071 30.9807 45.5284 30.9807 45.5284C30.9807 45.5284 30.1614 44.8071 28.9064 43.5521Z" fill="#ED5565"/>
<path d="M58.9764 49.482H53.0474L49.0947 45.5293H56.3477L58.9764 49.482Z" fill="#8CC152"/>
<path d="M37.0095 47.5054L41.2883 43.5527L46.6639 52.4462H23.2046L19.252 48.4936L37.0095 47.5054Z" fill="#8CC152"/>
<path d="M58.9765 49.4814L61.6148 53.4341H52.8695L50.9824 49.4814H58.9765Z" fill="#E6E9ED"/>
<path d="M30.9816 45.5291C30.9816 45.5291 31.8018 44.8077 33.0467 43.5527H41.2883L42.7112 48.4936H19.252L20.6749 43.5527H28.9063C30.1613 44.8077 30.9816 45.5291 30.9816 45.5291Z" fill="#E6E9ED"/>
<path d="M14.2717 42.5645L9.09398 53.4343H0.348633L7.59195 42.5645H14.2717Z" fill="#E6E9ED"/>
<path d="M18.2241 46.5171L14.9286 53.4343H9.09375L14.2715 42.5645L18.2241 46.5171Z" fill="#8CC152"/>
<path d="M61.6148 53.4346V57.3872H0.348633V53.4346H61.6148Z" fill="#81B53E"/>
<path d="M56.3483 45.5285H49.0953L45.8047 38.6113H51.7337L56.3483 45.5285Z" fill="#E6E9ED"/>
<path d="M30.9831 8.96484C36.9811 8.96484 41.8529 13.8376 41.8529 19.8346C41.8529 25.8428 36.9811 30.7045 30.9831 30.7045C24.9861 30.7045 20.1133 25.8428 20.1133 19.8346C20.1133 13.8376 24.9861 8.96484 30.9831 8.96484Z" fill="#DA4453"/>
<path d="M36.6362 16.1737C36.2497 15.7872 35.6254 15.7872 35.2389 16.1737L29.0204 22.3921L26.7565 20.1282C26.37 19.7418 25.7457 19.7418 25.3592 20.1282C24.9727 20.5147 24.9727 21.1391 25.3592 21.5256L28.3218 24.4881C28.5143 24.6806 28.7671 24.7776 29.0204 24.7776C29.2733 24.7776 29.5261 24.6806 29.7191 24.4881L36.6362 17.571C37.0213 17.1845 37.0213 16.5601 36.6362 16.1737Z" fill="#F5F7FA"/>
</g>
<defs>
<clipPath id="clip0">
<rect width="61.2662" height="61.2662" fill="white" transform="translate(0.348633 0.567383)"/>
</clipPath>
</defs>
</svg>
