<svg width="41" height="41" viewBox="0 0 41 41" fill="none" xmlns="http://www.w3.org/2000/svg">
<g clip-path="url(#clip0)">
<path d="M20.3367 39.5259C21.5845 39.5259 22.6315 38.6691 22.9227 37.5117C21.1747 35.9971 20.069 33.7612 20.069 31.2669C20.069 28.7344 21.2088 26.4688 23.0034 24.9539V14.4574C23.0034 12.9847 21.8094 11.791 20.3367 11.791H2.66635C1.19398 11.791 0 12.9847 0 14.4574V36.8595C0 38.3322 1.19398 39.5259 2.66635 39.5259" fill="#5B9ED6"/>
<path d="M20.3367 11.791H18.3614C19.834 11.791 21.028 12.9847 21.028 14.4574V23.6088C21.028 24.0248 20.8791 24.4265 20.6104 24.7443C19.7978 25.7043 19.1612 26.8179 18.7505 28.0356C18.3279 29.0281 18.0936 30.1198 18.0936 31.2666C18.0936 32.419 18.3298 33.516 18.7561 34.5122C18.7589 34.5207 18.7617 34.5291 18.7646 34.5376C19.1562 35.6824 18.3188 36.8752 17.1086 36.8752H2.66635C1.19398 36.8752 0 35.6812 0 34.2085V36.8595C0 38.3322 1.19398 39.5259 2.66666 39.5259H20.3367C21.2026 39.5259 21.9717 39.113 22.4588 38.4733C22.4616 38.4695 22.4644 38.4658 22.4675 38.4617C22.4869 38.4358 22.5063 38.4092 22.5251 38.3823C22.5301 38.3751 22.5348 38.3679 22.5398 38.3607C22.5561 38.3369 22.5723 38.3125 22.588 38.2878C22.5936 38.2787 22.5995 38.2693 22.6052 38.2603C22.6193 38.2374 22.633 38.2143 22.6465 38.1908C22.6527 38.1802 22.659 38.1693 22.6649 38.1586C22.6774 38.1364 22.6896 38.1139 22.7012 38.0914C22.7075 38.0795 22.7137 38.0673 22.72 38.0551C22.7309 38.0332 22.7416 38.0113 22.7519 37.9891C22.7578 37.9759 22.7641 37.9631 22.7697 37.9503C22.7797 37.9281 22.7891 37.9059 22.7985 37.8837C22.8041 37.8702 22.8098 37.8568 22.8151 37.8433C22.8241 37.8205 22.8326 37.7976 22.841 37.7748C22.846 37.7614 22.851 37.7479 22.8557 37.7345C22.8645 37.7097 22.8723 37.6847 22.8801 37.6597C22.8839 37.6478 22.888 37.6359 22.8917 37.624C22.9027 37.5868 22.913 37.5496 22.9227 37.5117C22.8326 37.4335 22.7444 37.3531 22.6577 37.2712C22.6474 37.2615 22.6371 37.2521 22.6268 37.2421C22.5436 37.1626 22.4619 37.0813 22.3821 36.9984C22.3709 36.9868 22.3599 36.9753 22.349 36.9637C22.2686 36.8796 22.1901 36.7938 22.1134 36.7059C22.1059 36.6972 22.0981 36.6884 22.0906 36.6797C22.0108 36.5877 21.9326 36.4945 21.8569 36.3991C20.7377 34.9896 20.0686 33.2063 20.0686 31.2669C20.0686 28.7344 21.2088 26.4688 23.0031 24.9539V14.4574C23.0034 12.9847 21.8094 11.791 20.3367 11.791Z" fill="#4C83B3"/>
<path d="M5.2002 9.30957H17.8034V11.7917H5.2002V9.30957Z" fill="#5A67AD"/>
<path d="M14.5625 9.30957H17.8035V11.7917H14.5625V9.30957Z" fill="#48538A"/>
<path d="M2.58105 5.74133V8.30821C2.58105 8.86125 3.02962 9.3095 3.58234 9.3095H19.4215C19.9746 9.3095 20.4228 8.86125 20.4228 8.30821V3.17414C20.4228 2.6211 19.9746 2.17285 19.4215 2.17285H3.58234C3.0293 2.17285 2.58105 2.62141 2.58105 3.17414V5.74133Z" fill="#5B9ED6"/>
<path d="M15.9277 2.17285V9.3095H19.4211C19.9742 9.3095 20.4224 8.86125 20.4224 8.30821V3.17414C20.4224 2.6211 19.9742 2.17285 19.4211 2.17285H15.9277Z" fill="#4C83B3"/>
<path d="M18.4178 25.6589C18.4178 29.4786 15.3214 32.5754 11.5014 32.5754C7.68173 32.5754 4.58496 29.4786 4.58496 25.6589C4.58496 21.839 7.68173 18.7422 11.5014 18.7422C15.3214 18.7422 18.4178 21.839 18.4178 25.6589Z" fill="#EF2D57"/>
<path d="M15.4215 19.9619C16.1895 21.0761 16.6402 22.4262 16.6402 23.8817C16.6402 27.7017 13.5435 30.7981 9.72379 30.7981C8.26799 30.7981 6.91824 30.3477 5.80371 29.5794C7.05118 31.389 9.13728 32.5761 11.5015 32.5761C15.3214 32.5761 18.4179 29.4793 18.4179 25.6597C18.4179 23.2955 17.2311 21.2094 15.4215 19.9619Z" fill="#D9294F"/>
<path d="M36.5867 31.2668C36.5867 35.8284 32.889 39.5261 28.3274 39.5261C23.766 39.5261 20.0684 35.8284 20.0684 31.2668C20.0684 26.7055 23.766 23.0078 28.3274 23.0078C32.889 23.0078 36.5867 26.7055 36.5867 31.2668Z" fill="#FCDA55"/>
<path d="M33.3209 24.6875C34.3748 26.0742 35.0007 27.804 35.0007 29.6799C35.0007 34.2415 31.303 37.9392 26.7414 37.9392C24.8655 37.9392 23.1357 37.3132 21.749 36.2594C23.2577 38.2445 25.6431 39.5263 28.3289 39.5263C32.8902 39.5263 36.5879 35.8287 36.5879 31.267C36.5879 28.5816 35.306 26.1962 33.3209 24.6875Z" fill="#D9BC4A"/>
<path d="M22.6572 37.1917C22.9735 37.4664 23.311 37.7175 23.6666 37.9425L35.0596 26.5491C34.8347 26.1935 34.5839 25.856 34.3089 25.54C34.2579 25.5682 34.2094 25.6035 34.166 25.647L22.7642 37.0488C22.7207 37.0922 22.6854 37.1404 22.6572 37.1917Z" fill="#D9BC4A"/>
<path d="M33.5002 12.7483C30.5473 13.4628 28.2354 15.8876 28.2354 19.031V23.0099C28.2663 23.0096 28.297 23.0086 28.3279 23.0086C32.8896 23.0086 36.5872 26.7063 36.5872 31.268C36.5872 33.5186 35.6867 35.5587 34.2265 37.0483C34.356 37.0564 34.4861 37.0614 34.6175 37.0614C38.1425 37.0614 41 34.2039 41 30.6793V19.031C41 15.8876 38.7268 13.277 35.7352 12.7483C35.7352 12.7483 34.2653 12.5631 33.5002 12.7483Z" fill="#F084AD"/>
<path d="M35.7352 12.7474C34.9338 12.6376 34.189 12.6376 33.5002 12.7474C33.4777 12.7515 33.4551 12.7568 33.4326 12.7608C36.3905 13.317 38.6296 15.9105 38.6296 19.0301V30.6783C38.6296 33.3578 36.9776 35.6504 34.6369 36.5963C34.5055 36.7517 34.3688 36.9022 34.2265 37.0473C34.356 37.0555 34.4861 37.0605 34.6178 37.0605C38.1425 37.0605 41 34.203 41 30.6783V19.0301C41 15.8867 38.7268 13.276 35.7352 12.7474Z" fill="#D47499"/>
<path d="M33.5332 24.8545C35.3966 26.3688 36.5877 28.6788 36.5877 31.267C36.5877 33.5179 35.6872 35.5581 34.227 37.0476C34.3565 37.0555 34.4866 37.0608 34.618 37.0608C38.143 37.0608 41.0005 34.2033 41.0005 30.6786V24.8545H33.5332Z" fill="#EF2D57"/>
<path d="M38.6296 30.6786C38.6296 33.3581 36.9777 35.6503 34.637 36.5966C34.576 36.6688 34.5137 36.7395 34.4502 36.8096C34.4393 36.8215 34.4283 36.8334 34.4177 36.8453C34.3548 36.9138 34.2913 36.9816 34.2266 37.0476C34.3561 37.0558 34.4862 37.0608 34.6176 37.0608C38.1426 37.0608 41 34.2033 41 30.6786V24.8545H38.6296V30.6786Z" fill="#CC264B"/>
<path d="M14.6794 25.0238H12.1363V22.4807C12.1363 22.13 11.8519 21.8457 11.5013 21.8457C11.1506 21.8457 10.8666 22.13 10.8666 22.4807V25.0238H8.32347C7.97282 25.0238 7.68848 25.3078 7.68848 25.6585C7.68848 26.0091 7.97282 26.2935 8.32347 26.2935H10.8666V28.8366C10.8666 29.1872 11.1506 29.4716 11.5013 29.4716C11.8519 29.4716 12.1363 29.1872 12.1363 28.8366V26.2935H14.6794C15.03 26.2935 15.3144 26.0091 15.3144 25.6585C15.3144 25.3078 15.03 25.0238 14.6794 25.0238Z" fill="white"/>
<path d="M6.95335 9.92812C6.6027 9.92812 6.31836 9.64378 6.31836 9.29313V2.15648C6.31836 1.80582 6.6027 1.52148 6.95335 1.52148C7.30401 1.52148 7.58835 1.80582 7.58835 2.15648V9.29313C7.58835 9.64378 7.30401 9.92812 6.95335 9.92812Z" fill="#674297"/>
<path d="M11.511 9.92812C11.1603 9.92812 10.876 9.64378 10.876 9.29313V2.15648C10.876 1.80582 11.1603 1.52148 11.511 1.52148C11.8616 1.52148 12.1457 1.80582 12.1457 2.15648V9.29313C12.146 9.64378 11.8616 9.92812 11.511 9.92812Z" fill="#674297"/>
<path d="M16.0686 9.92812C15.7179 9.92812 15.4336 9.64378 15.4336 9.29313V2.15648C15.4336 1.80582 15.7179 1.52148 16.0686 1.52148C16.4192 1.52148 16.7033 1.80582 16.7033 2.15648V9.29313C16.7036 9.64378 16.4192 9.92812 16.0686 9.92812Z" fill="#674297"/>
<path d="M22.5439 37.6797C22.3815 37.6797 22.2192 37.6174 22.095 37.4935C21.8472 37.2455 21.8472 36.8435 22.095 36.5955L33.4967 25.1937C33.7448 24.946 34.1467 24.9457 34.3948 25.1937C34.6428 25.4418 34.6428 25.8437 34.3948 26.0918L22.993 37.4935C22.8689 37.6174 22.7065 37.6797 22.5439 37.6797Z" fill="#E69326"/>
</g>
<defs>
<clipPath id="clip0">
<rect width="41" height="41" fill="white"/>
</clipPath>
</defs>
</svg>
