<svg width="40" height="40" viewBox="0 0 40 40" fill="none" xmlns="http://www.w3.org/2000/svg">
<path d="M30.625 40C35.8027 40 40 35.8027 40 30.625C40 25.4473 35.8027 21.25 30.625 21.25C25.4473 21.25 21.25 25.4473 21.25 30.625C21.25 35.8027 25.4473 40 30.625 40Z" fill="#F79CAF"/>
<path d="M18.75 5.15625V13.5938C18.75 16.4367 16.4367 18.75 13.5938 18.75H5.15625C2.31328 18.75 0 16.4367 0 13.5938V5.15625C0 2.31328 2.31328 0 5.15625 0H13.5938C16.4367 0 18.75 2.31328 18.75 5.15625Z" fill="#ACEBE2"/>
<path d="M40 5.15625V13.5938C40 16.4367 37.6867 18.75 34.8438 18.75H26.4062C23.5633 18.75 21.25 16.4367 21.25 13.5938V5.15625C21.25 2.31328 23.5633 0 26.4062 0H34.8438C37.6867 0 40 2.31328 40 5.15625Z" fill="#ACEBE2"/>
<path d="M18.75 26.4062V34.8438C18.75 37.6867 16.4367 40 13.5938 40H5.15625C2.31328 40 0 37.6867 0 34.8438V26.4062C0 23.5633 2.31328 21.25 5.15625 21.25H13.5938C16.4367 21.25 18.75 23.5633 18.75 26.4062Z" fill="#ACEBE2"/>
<path d="M40 30.625C40 35.7945 35.7945 40 30.625 40C30.2016 40 29.7836 39.9719 29.375 39.9164C33.9563 39.3039 37.5 35.3703 37.5 30.625C37.5 25.8797 33.9563 21.9461 29.375 21.3336C29.7836 21.2781 30.2016 21.25 30.625 21.25C35.7945 21.25 40 25.4555 40 30.625Z" fill="#E3889B"/>
<path d="M18.75 5.15625V13.5938C18.75 16.4367 16.4367 18.75 13.5938 18.75H11.0938C13.9367 18.75 16.25 16.4367 16.25 13.5938V5.15625C16.25 2.31328 13.9367 0 11.0938 0H13.5938C16.4367 0 18.75 2.31328 18.75 5.15625Z" fill="#98D7CE"/>
<path d="M40 5.15625V13.5938C40 16.4367 37.6867 18.75 34.8438 18.75H32.3438C35.1867 18.75 37.5 16.4367 37.5 13.5938V5.15625C37.5 2.31328 35.1867 0 32.3438 0H34.8438C37.6867 0 40 2.31328 40 5.15625Z" fill="#98D7CE"/>
<path d="M18.75 26.4062V34.8438C18.75 37.6867 16.4367 40 13.5938 40H11.0938C13.9367 40 16.25 37.6867 16.25 34.8438V26.4062C16.25 23.5633 13.9367 21.25 11.0938 21.25H13.5938C16.4367 21.25 18.75 23.5633 18.75 26.4062Z" fill="#98D7CE"/>
</svg>
