<svg width="21" height="22" viewBox="0 0 21 22" fill="none" xmlns="http://www.w3.org/2000/svg">
<path fill-rule="evenodd" clip-rule="evenodd" d="M8.79297 15.8827L10.2565 19.6297L11.705 15.9262L10.9312 13.3023C11.0007 13.2384 11.0464 13.1488 11.0464 13.0479V12.4454C11.0464 12.2538 10.8887 12.0977 10.697 12.0977H9.78266C9.59043 12.0977 9.4332 12.2538 9.4332 12.4454V13.0479C9.4332 13.1649 9.4962 13.2637 9.58558 13.327L8.79297 15.8827Z" fill="#77869E"/>
<path fill-rule="evenodd" clip-rule="evenodd" d="M14.0388 12.05L10.2561 21.7187L6.47769 12.0479C2.65031 13.5433 0.768923 17.2409 0 21.7778H20.5122C19.7411 17.2431 17.864 13.5465 14.0388 12.05Z" fill="#77869E"/>
<path fill-rule="evenodd" clip-rule="evenodd" d="M10.2983 0C7.21448 0.00107317 4.71387 2.4919 4.71387 5.56385C4.71387 8.63741 7.21448 11.1277 10.2983 11.1277C13.3815 11.1277 15.8805 8.63741 15.8816 5.56385C15.8805 2.4919 13.3815 0.00107317 10.2983 0ZM10.2983 10.1753C7.82887 10.171 5.82148 8.24624 5.68417 5.82195C6.74171 4.89795 7.48694 3.68205 7.74271 2.31376C9.03341 3.75288 11.0058 4.67473 13.2167 4.67473C13.7611 4.67473 14.2888 4.61571 14.7971 4.50839C14.8773 4.84805 14.9236 5.20005 14.9247 5.56385C14.9204 8.10942 12.8527 10.171 10.2983 10.1753Z" fill="#77869E"/>
</svg>
