<svg width="65" height="62" viewBox="0 0 65 62" fill="none" xmlns="http://www.w3.org/2000/svg">
<g clip-path="url(#clip0)">
<path d="M1.12271 49.6226C0.542617 48.9156 0.669552 47.904 1.40634 47.3622L13.01 38.8701C13.7468 38.3284 14.8136 38.4622 15.3937 39.1692C15.9738 39.8763 15.8468 40.8879 15.11 41.4296L3.50637 49.9217C2.76947 50.4634 1.7028 50.3296 1.12271 49.6226Z" fill="#B8BFCC"/>
<path d="M2.25715 40.581C1.67706 39.874 1.80399 38.8624 2.54078 38.3206L8.81005 33.7495C9.54683 33.2077 10.6136 33.3416 11.1937 34.0486C11.7738 34.7556 11.6469 35.7672 10.9101 36.309L4.64081 40.8801C3.9039 41.4219 2.83723 41.2881 2.25715 40.581Z" fill="#B8BFCC"/>
<path d="M5.32368 54.7433C4.74359 54.0363 4.87052 53.0247 5.60731 52.4829L17.2095 43.9891C17.9463 43.4473 19.0131 43.5812 19.5931 44.2882C20.1732 44.9952 20.0463 46.0068 19.3095 46.5485L7.70734 55.0424C6.97043 55.5843 5.90387 55.4504 5.32368 54.7433Z" fill="#B8BFCC"/>
<path d="M14.8587 55.9394C14.2786 55.2324 14.4056 54.2208 15.1423 53.679L21.4116 49.1079C22.1484 48.5661 23.2152 48.7 23.7953 49.407C24.3754 50.114 24.2484 51.1256 23.5116 51.6674L17.2424 56.2385C16.5055 56.7803 15.4387 56.6465 14.8587 55.9394Z" fill="#B8BFCC"/>
<g clip-path="url(#clip1)">
<path d="M52.7937 40.7715V44.3443C52.7937 46.364 46.2509 47.9996 38.1732 47.9996C30.0955 47.9996 23.5527 46.364 23.5527 44.3443V40.7715H52.7937Z" fill="#7F6E5D"/>
<path d="M61.9313 16.0176V34.2929C61.9313 38.8354 51.2941 42.517 38.1734 42.517C25.0523 42.517 14.415 38.8354 14.415 34.2929V16.0176H61.9313Z" fill="#CBB292"/>
<path d="M23.9184 25.4036C23.1918 25.2208 22.4817 25.0316 21.8093 24.827C21.1369 24.6224 20.4624 24.3955 19.8393 24.1626C19.3703 23.9989 18.8559 24.2399 18.6821 24.7053C18.5082 25.1707 18.7379 25.6899 19.1996 25.8742C19.8583 26.1209 20.5582 26.3566 21.2796 26.5758C21.984 26.7897 22.7259 26.9927 23.4845 27.1779C23.5557 27.1953 23.6293 27.2041 23.7029 27.2046C24.1646 27.2037 24.5528 26.8584 24.6082 26.3999C24.6632 25.9414 24.3676 25.514 23.9192 25.4036H23.9184Z" fill="#FDD7AD"/>
<path d="M47.8914 26.2839C47.107 26.4019 46.3125 26.5047 45.5074 26.592C44.7028 26.6789 43.8928 26.7517 43.0769 26.8095C42.2617 26.8678 41.4433 26.9106 40.6253 26.9401C38.9889 26.9967 37.3586 26.9967 35.723 26.9401C34.9042 26.9106 34.0866 26.8674 33.2702 26.8095C32.4542 26.7517 31.6439 26.6789 30.8396 26.592C30.3431 26.5467 29.9024 26.9078 29.8482 27.4031C29.7944 27.8988 30.1478 28.3461 30.6423 28.4083C31.4696 28.4981 32.3022 28.5725 33.1396 28.6323C33.9774 28.6922 34.8168 28.7367 35.6579 28.7666C36.4981 28.7961 37.3367 28.8107 38.1737 28.8107C39.0107 28.8107 39.8493 28.7961 40.6892 28.7666C41.5298 28.7363 42.3693 28.6914 43.2075 28.6323C44.0457 28.5733 44.8782 28.4985 45.7051 28.4083C46.5328 28.3178 47.352 28.2122 48.162 28.0921C48.6613 28.0165 49.005 27.5503 48.9294 27.0509C48.8534 26.5516 48.3872 26.2083 47.8878 26.2839H47.8914Z" fill="#FDD7AD"/>
<path d="M57.198 11.0927C60.1769 12.4635 61.9313 14.1723 61.9313 16.0181C61.9313 20.5594 51.2949 24.2418 38.1734 24.2418C25.0514 24.2418 14.415 20.5594 14.415 16.0181C14.415 11.4765 25.0514 7.79406 38.1734 7.79406C40.7535 7.78921 43.3321 7.93882 45.8948 8.24167" fill="#7F6E5D"/>
<path d="M42.0941 11.5681C40.8604 11.486 39.5536 11.4492 38.1739 11.4492C28.0308 11.4492 21.5616 13.6788 19.1036 15.2505C18.8464 15.4215 18.6924 15.7098 18.6924 16.0184C18.6924 16.3269 18.8464 16.6148 19.1036 16.7858C21.0315 18.0195 25.4175 19.6551 32.1063 20.3037C33.9614 20.4864 35.9807 20.5871 38.1739 20.5871C42.1179 20.6203 46.0543 20.2313 49.9158 19.4266L49.9251 19.4173C52.4935 18.9511 54.9669 18.0619 57.2442 16.7858C57.501 16.6148 57.6555 16.3269 57.6555 16.0184C57.6555 15.7098 57.501 15.4215 57.2442 15.2505C56.4246 14.7511 55.5585 14.3318 54.6584 13.9986L42.0941 11.5681Z" fill="#59474E"/>
<path d="M65.5589 1.53474L57.1978 11.0927L54.6576 13.9984L49.9243 19.4171L49.915 19.4264C46.0535 20.231 42.1172 20.62 38.1731 20.5869C35.9799 20.5869 33.9606 20.4862 32.1055 20.3034L42.0933 11.5679L45.8946 8.24168L59.9667 -4.05781C61.5417 -5.39418 63.8784 -5.29835 65.3389 -3.83784C66.7998 -2.37734 66.8953 -0.0401974 65.5589 1.53474Z" fill="#CB8252"/>
</g>
</g>
<defs>
<clipPath id="clip0">
<rect width="58" height="55" fill="white" transform="translate(6.84766) rotate(7.15204)"/>
</clipPath>
<clipPath id="clip1">
<rect width="53" height="53" fill="white" transform="translate(14 -5)"/>
</clipPath>
</defs>
</svg>
